<svg id="ssvg2" class="svgSelector" xmlns:xlink="http://www.w3.org/1999/xlink" xmlns="http://www.w3.org/2000/svg"
      width="32px" height="32px" viewBox="0 0 32 32" version="1.1">
      <defs xmlns="http://www.w3.org/2000/svg">
        <path
          d="M2 0L30 0Q30.1025 0 30.2034 0.00932124Q30.3044 0.0186425 30.4029 0.037209Q30.5014 0.0557754 30.5967 0.0834357Q30.692 0.111096 30.7833 0.147624Q30.8747 0.184153 30.9612 0.229252Q31.0478 0.27435 31.129 0.327651Q31.2101 0.380953 31.2852 0.442021Q31.3602 0.50309 31.4286 0.571429Q31.4969 0.639767 31.558 0.714818Q31.6191 0.789868 31.6724 0.871019Q31.7257 0.95217 31.7708 1.03876Q31.8158 1.12535 31.8524 1.21667Q31.8889 1.30799 31.9166 1.4033Q31.9442 1.49861 31.9628 1.59713Q31.9814 1.69564 31.9907 1.79657Q32 1.89749 32 2L32 30Q32 30.1025 31.9907 30.2034Q31.9814 30.3044 31.9628 30.4029Q31.9442 30.5014 31.9166 30.5967Q31.8889 30.692 31.8524 30.7833Q31.8158 30.8747 31.7708 30.9612Q31.7257 31.0478 31.6723 31.129Q31.6191 31.2101 31.558 31.2852Q31.4969 31.3602 31.4286 31.4286Q31.3602 31.4969 31.2852 31.558Q31.2101 31.6191 31.129 31.6724Q31.0478 31.7257 30.9612 31.7708Q30.8747 31.8158 30.7833 31.8524Q30.692 31.8889 30.5967 31.9166Q30.5014 31.9442 30.4029 31.9628Q30.3044 31.9814 30.2034 31.9907Q30.1025 32 30 32L2 32Q1.89749 32 1.79657 31.9907Q1.69564 31.9814 1.59713 31.9628Q1.49861 31.9442 1.4033 31.9166Q1.30799 31.8889 1.21667 31.8524Q1.12535 31.8158 1.03876 31.7708Q0.95217 31.7257 0.871019 31.6723Q0.789868 31.6191 0.714818 31.558Q0.639767 31.4969 0.571429 31.4286Q0.50309 31.3602 0.442021 31.2852Q0.380953 31.2101 0.327651 31.129Q0.27435 31.0478 0.229252 30.9612Q0.184153 30.8747 0.147624 30.7833Q0.111096 30.692 0.0834357 30.5967Q0.0557754 30.5014 0.037209 30.4029Q0.0186425 30.3044 0.00932124 30.2034Q0 30.1025 0 30L0 2Q0 1.89749 0.00932124 1.79657Q0.0186425 1.69564 0.037209 1.59713Q0.0557754 1.49861 0.0834357 1.4033Q0.111096 1.30799 0.147624 1.21667Q0.184153 1.12535 0.229252 1.03876Q0.27435 0.95217 0.327651 0.871019Q0.380953 0.789868 0.442021 0.714818Q0.50309 0.639767 0.571429 0.571429Q0.639767 0.50309 0.714818 0.442021Q0.789868 0.380953 0.871019 0.327651Q0.95217 0.27435 1.03876 0.229252Q1.12535 0.184153 1.21667 0.147624Q1.30799 0.111096 1.4033 0.0834357Q1.49861 0.0557754 1.59713 0.037209Q1.69564 0.0186425 1.79657 0.00932124Q1.89749 0 2 0Z"
          id="path_1" />
        <clipPath id="clip_1">
          <use xmlns:xlink="http://www.w3.org/1999/xlink" xlink:href="#path_1" />
        </clipPath>
      </defs>
      <g xmlns="http://www.w3.org/2000/svg" id="Layout-2">
        <g id="Rectangle">
          <g clip-path="url(#clip_1)">
            <use xmlns:xlink="http://www.w3.org/1999/xlink" xlink:href="#path_1" fill="none" stroke="#FFFFF"
              stroke-width="2" />
          </g>
        </g>
        <g id="Group-3" transform="translate(4 6)">
          <path d="M0 0L16 0L16 4L0 4L0 0Z" id="Rectangle" fill="#0093c9" stroke="none" />
          <path d="M0 0L16 0L16 4L0 4L0 0Z" transform="translate(0 8)" id="Rectangle" fill="#0093c9" stroke="none" />
          <path d="M0 0L16 0L16 4L0 4L0 0Z" transform="translate(0 16)" id="Rectangle" fill="#0093c9" stroke="none" />
          <path d="M0 0L4 0L4 20L0 20L0 0Z" transform="translate(20 0)" id="Rectangle" fill="#0093c9" stroke="none" />
        </g>
      </g>
    </svg>